<svg viewBox="0 0 18 18" fill="none" xmlns="http://www.w3.org/2000/svg">
<path d="M8.80196 4.4077C6.30479 4.4077 4.29055 6.42238 4.29055 8.92012C4.29055 11.4179 6.30479 13.4325 8.80196 13.4325C11.2991 13.4325 13.3134 11.4179 13.3134 8.92012C13.3134 6.42238 11.2991 4.4077 8.80196 4.4077ZM8.80196 11.8538C7.18822 11.8538 5.86896 10.5381 5.86896 8.92012C5.86896 7.30209 7.18429 5.98646 8.80196 5.98646C10.4196 5.98646 11.735 7.30209 11.735 8.92012C11.735 10.5381 10.4157 11.8538 8.80196 11.8538ZM14.5502 4.22312C14.5502 4.80828 14.079 5.27562 13.4979 5.27562C12.9129 5.27562 12.4456 4.80435 12.4456 4.22312C12.4456 3.64188 12.9168 3.17061 13.4979 3.17061C14.079 3.17061 14.5502 3.64188 14.5502 4.22312ZM17.5382 5.29133C17.4714 3.88145 17.1494 2.63258 16.1168 1.60364C15.0881 0.574697 13.8395 0.252662 12.4299 0.181971C10.9772 0.0994991 6.62282 0.0994991 5.17006 0.181971C3.76442 0.248735 2.51583 0.57077 1.48319 1.59971C0.450552 2.62865 0.132515 3.87752 0.0618405 5.28741C-0.0206135 6.74049 -0.0206135 11.0958 0.0618405 12.5489C0.128589 13.9588 0.450552 15.2077 1.48319 16.2366C2.51583 17.2655 3.76049 17.5876 5.17006 17.6583C6.62282 17.7407 10.9772 17.7407 12.4299 17.6583C13.8395 17.5915 15.0881 17.2695 16.1168 16.2366C17.1455 15.2077 17.4675 13.9588 17.5382 12.5489C17.6206 11.0958 17.6206 6.74442 17.5382 5.29133ZM15.6613 14.108C15.3551 14.8778 14.7622 15.4708 13.9887 15.781C12.8304 16.2405 10.082 16.1345 8.80196 16.1345C7.52196 16.1345 4.76957 16.2366 3.61521 15.781C2.84564 15.4747 2.25276 14.8817 1.94258 14.108C1.48319 12.9495 1.5892 10.2004 1.5892 8.92012C1.5892 7.63983 1.48712 4.88682 1.94258 3.73221C2.24883 2.96247 2.84172 2.36945 3.61521 2.0592C4.7735 1.59971 7.52196 1.70575 8.80196 1.70575C10.082 1.70575 12.8344 1.60364 13.9887 2.0592C14.7583 2.36553 15.3512 2.95854 15.6613 3.73221C16.1207 4.89075 16.0147 7.63983 16.0147 8.92012C16.0147 10.2004 16.1207 12.9534 15.6613 14.108Z" fill="#FD3E77"/>
</svg>
