<svg viewBox="0 0 20 20" fill="none" xmlns="http://www.w3.org/2000/svg">
<path d="M17.8286 0.719727H1.36714C0.612857 0.719727 0 1.31526 0 2.04633V17.7931C0 18.5242 0.612857 19.1197 1.36714 19.1197H17.8286C18.5829 19.1197 19.2 18.5242 19.2 17.7931V2.04633C19.2 1.31526 18.5829 0.719727 17.8286 0.719727ZM5.80286 16.4912H2.95714V7.71008H5.80714V16.4912H5.80286ZM4.38 6.5108C3.46714 6.5108 2.73 5.80026 2.73 4.92955C2.73 4.05883 3.46714 3.3483 4.38 3.3483C5.28857 3.3483 6.03 4.05883 6.03 4.92955C6.03 5.80437 5.29286 6.5108 4.38 6.5108ZM16.47 16.4912H13.6243V12.2197C13.6243 11.2012 13.6029 9.89098 12.1457 9.89098C10.6629 9.89098 10.4357 10.9999 10.4357 12.1458V16.4912H7.59V7.71008H10.32V8.90937H10.3586C10.74 8.21937 11.67 7.4924 13.0543 7.4924C15.9343 7.4924 16.47 9.31187 16.47 11.6776V16.4912Z" fill="#286FA3"/>
</svg>
