<svg viewBox="0 0 43 43" fill="none" xmlns="http://www.w3.org/2000/svg">
<path d="M41.3203 35.4414H37.8658C38.0446 34.8673 38.0725 34.2384 37.9134 33.6128L36.6477 28.7217C36.4158 27.8254 35.5018 27.2854 34.6045 27.5157L29.096 28.9274L25.3088 14.0346L29.2157 13.0409L31.5575 22.25C31.7861 23.1492 32.7008 23.6928 33.5993 23.4638C34.4986 23.2351 35.0418 22.3211 34.8132 21.4219L30.8364 5.78278C30.6153 4.91341 30.0684 4.18183 29.2971 3.7232C28.5258 3.26489 27.6227 3.13367 26.7523 3.35511L23.1797 4.26352V3.35938C23.1797 1.50713 21.6726 0 19.8203 0H15.7891C13.9368 0 12.4297 1.50713 12.4297 3.35938V6.71875H8.39844C6.54619 6.71875 5.03906 8.22588 5.03906 10.0781V35.4414H1.67969C0.751923 35.4414 0 36.1933 0 37.1211C0 38.0489 0.751923 38.8008 1.67969 38.8008H3.35938V41.3203C3.35938 42.2481 4.1113 43 5.03906 43C5.96683 43 6.71875 42.2481 6.71875 41.3203V38.8008H36.2812V41.3203C36.2812 42.2481 37.0332 43 37.9609 43C38.8887 43 39.6406 42.2481 39.6406 41.3203V38.8008H41.3203C42.2481 38.8008 43 38.0489 43 37.1211C43 36.1933 42.2481 35.4414 41.3203 35.4414V35.4414ZM23.1797 19.2928L27.2861 35.4414H23.1797V19.2928ZM33.8152 31.1858L34.6593 34.4474L30.7524 35.4411L29.924 32.1827L33.8152 31.1858ZM27.5803 6.61082L28.3877 9.78516L24.4808 10.7789L23.6738 7.60419L27.5803 6.61082ZM12.4297 10.0781V13.3535H8.39844V10.0781H12.4297ZM8.39844 16.7129H12.4297V35.4414H8.39844V16.7129ZM15.7891 35.4414V3.35938H19.8203V35.4414H15.7891Z" fill="white"/>
</svg>
