<svg viewBox="0 0 8 14" fill="none" xmlns="http://www.w3.org/2000/svg">
<path d="M7.1667 7.44032L1.83337 13.4403C1.71659 13.5728 1.55202 13.6535 1.37579 13.6647C1.19955 13.676 1.02606 13.6169 0.893376 13.5003C0.760918 13.3835 0.680207 13.219 0.668958 13.0427C0.657709 12.8665 0.716841 12.693 0.833376 12.5603L5.77337 7.00032L0.833376 1.44032C0.725623 1.30654 0.673668 1.13633 0.688345 0.965176C0.703022 0.794024 0.783198 0.635143 0.912155 0.52166C1.04111 0.408178 1.2089 0.348853 1.38053 0.356056C1.55215 0.363258 1.71438 0.436432 1.83337 0.560321L7.1667 6.56032C7.27358 6.68198 7.33252 6.83838 7.33252 7.00032C7.33252 7.16226 7.27358 7.31866 7.1667 7.44032Z" fill="#6C5DD3"/>
</svg>
