<svg viewBox="0 0 18 16" fill="none" xmlns="http://www.w3.org/2000/svg">
<path d="M15.7908 4.00932C15.802 4.17987 15.802 4.35046 15.802 4.52101C15.802 9.72301 12.1726 15.7169 5.53908 15.7169C3.49542 15.7169 1.59696 15.0712 0 13.9505C0.290366 13.987 0.569525 13.9992 0.871063 13.9992C2.55733 13.9992 4.10963 13.3779 5.34923 12.318C3.76344 12.2814 2.43451 11.1484 1.97663 9.58902C2.2 9.62555 2.42333 9.64992 2.65788 9.64992C2.98172 9.64992 3.3056 9.60117 3.60711 9.51593C1.95432 9.15042 0.714691 7.56669 0.714691 5.654V5.60528C1.19488 5.89767 1.7533 6.08041 2.34513 6.10475C1.37356 5.39813 0.737034 4.19206 0.737034 2.82758C0.737034 2.09663 0.915681 1.42658 1.22839 0.841809C3.00403 3.22962 5.67308 4.78898 8.66594 4.95957C8.61011 4.66718 8.5766 4.36265 8.5766 4.05807C8.5766 1.88952 10.1847 0.123047 12.1837 0.123047C13.2223 0.123047 14.1603 0.598172 14.8192 1.36568C15.6344 1.19513 16.4162 0.866185 17.1086 0.415434C16.8405 1.32916 16.271 2.09667 15.5228 2.58395C16.2487 2.49871 16.9522 2.27937 17.5999 1.97483C17.1086 2.7545 16.4944 3.44888 15.7908 4.00932Z" fill="#3CB5DB"/>
</svg>
