<svg viewBox="0 0 18 22" fill="none" xmlns="http://www.w3.org/2000/svg">
<path fill-rule="evenodd" clip-rule="evenodd" d="M9 12C5.13401 12 2 15.134 2 19V21C2 21.5523 1.55228 22 1 22C0.44772 22 0 21.5523 0 21V19C0 14.0294 4.02944 10 9 10C13.9706 10 18 14.0294 18 19V21C18 21.5523 17.5523 22 17 22C16.4477 22 16 21.5523 16 21V19C16 15.134 12.866 12 9 12Z" fill="white"/>
<path fill-rule="evenodd" clip-rule="evenodd" d="M9 10C11.2091 10 13 8.20916 13 6.00002C13 3.79088 11.2091 2.00002 9 2.00002C6.79086 2.00002 5 3.79088 5 6.00002C5 8.20916 6.79086 10 9 10ZM9 12C12.3137 12 15 9.31371 15 6.00002C15 2.68631 12.3137 1.52588e-05 9 1.52588e-05C5.68629 1.52588e-05 3 2.68631 3 6.00002C3 9.31371 5.68629 12 9 12Z" fill="white"/>
</svg>
