<svg viewBox="0 0 25 19" fill="none" xmlns="http://www.w3.org/2000/svg">
<path d="M24.4776 2.93651C24.1901 1.82791 23.3429 0.95482 22.2673 0.658523C20.3177 0.120117 12.5 0.120117 12.5 0.120117C12.5 0.120117 4.68232 0.120117 2.73266 0.658523C1.65706 0.954867 0.80992 1.82791 0.522399 2.93651C0 4.9459 0 9.1383 0 9.1383C0 9.1383 0 13.3307 0.522399 15.3401C0.80992 16.4487 1.65706 17.2854 2.73266 17.5817C4.68232 18.1201 12.5 18.1201 12.5 18.1201C12.5 18.1201 20.3177 18.1201 22.2673 17.5817C23.3429 17.2854 24.1901 16.4487 24.4776 15.3401C25 13.3307 25 9.1383 25 9.1383C25 9.1383 25 4.9459 24.4776 2.93651ZM9.94316 12.9447V5.33191L16.4772 9.1384L9.94316 12.9447Z" fill="#FF2B2B"/>
</svg>
